<?xml version="1.0" standalone="no"?>
<!DOCTYPE svg PUBLIC "-//W3C//DTD SVG 20010904//EN"
 "http://www.w3.org/TR/2001/REC-SVG-20010904/DTD/svg10.dtd">
<svg version="1.0" xmlns="http://www.w3.org/2000/svg"
 width="500.000000pt" height="500.000000pt" viewBox="0 0 500.000000 500.000000"
 preserveAspectRatio="xMidYMid meet" fill='#FFC384'>

<g transform="translate(0.000000,500.000000) scale(0.100000,-0.100000)">
<path  d="M2335 3864 c-259 -38 -521 -142 -648 -255 -132 -118 -217 -304 -217
-477 l0 -56 47 64 c61 85 191 214 276 274 137 96 310 169 492 207 93 20 353
17 455 -5 298 -64 558 -227 730 -458 l60 -81 0 57 c0 170 -86 358 -217 475
-102 91 -331 192 -533 236 -73 15 -379 29 -445 19z"/>
<path d="M1331 3311 c-121 -189 -191 -373 -222 -581 -19 -134 -7 -401 25 -529
52 -205 142 -387 245 -491 119 -121 249 -179 416 -188 l100 -5 -55 38 c-192
132 -342 317 -433 535 -72 172 -72 252 0 307 31 24 46 28 128 31 110 5 210
-10 282 -43 98 -44 298 -259 375 -402 52 -97 89 -229 94 -343 7 -126 -11 -160
-106 -207 -102 -51 -300 -66 -471 -37 l-34 5 30 -25 c40 -35 243 -138 333
-170 148 -53 260 -70 462 -69 202 0 316 17 462 69 88 31 291 135 333 169 l30
25 -60 -8 c-33 -4 -116 -7 -185 -6 -176 1 -288 36 -342 108 -21 28 -23 41 -22
136 1 174 54 319 172 476 77 101 224 245 281 273 61 31 161 51 261 50 224 0
266 -88 163 -339 -86 -211 -235 -395 -427 -529 l-59 -41 74 0 c167 0 310 61
435 185 70 70 87 95 136 195 114 232 153 416 146 679 -7 227 -44 383 -138 572
-40 81 -140 242 -146 236 -2 -2 1 -30 7 -63 6 -34 9 -122 6 -209 -3 -121 -8
-162 -26 -210 -40 -110 -81 -131 -228 -121 -146 11 -311 56 -476 130 -211 94
-270 111 -397 111 -128 -1 -185 -16 -375 -101 -212 -94 -339 -128 -515 -139
-144 -10 -185 19 -221 155 -21 83 -27 297 -9 390 6 29 8 55 6 57 -2 2 -27 -32
-55 -76z m1231 -551 c155 -43 218 -236 121 -367 -60 -81 -179 -113 -271 -73
-99 43 -149 130 -139 242 13 142 151 236 289 198z"/>
</g>
</svg>
